<svg width="400" height="400" viewBox="0 0 400 400" fill="none" xmlns="http://www.w3.org/2000/svg">
  <defs>
    <linearGradient id="grad1" x1="0%" y1="0%" x2="100%" y2="100%">
      <stop offset="0%" style="stop-color:#8B5CF6;stop-opacity:1" />
      <stop offset="100%" style="stop-color:#EC4899;stop-opacity:1" />
    </linearGradient>
    <linearGradient id="grad2" x1="0%" y1="0%" x2="100%" y2="100%">
      <stop offset="0%" style="stop-color:#3B82F6;stop-opacity:1" />
      <stop offset="100%" style="stop-color:#8B5CF6;stop-opacity:1" />
    </linearGradient>
    <linearGradient id="grad3" x1="0%" y1="0%" x2="100%" y2="100%">
      <stop offset="0%" style="stop-color:#10B981;stop-opacity:1" />
      <stop offset="100%" style="stop-color:#3B82F6;stop-opacity:1" />
    </linearGradient>
  </defs>
  
  <!-- Code brackets -->
  <path d="M120 80 L60 200 L120 320" stroke="url(#grad1)" stroke-width="20" stroke-linecap="round" stroke-linejoin="round" fill="none"/>
  <path d="M280 80 L340 200 L280 320" stroke="url(#grad2)" stroke-width="20" stroke-linecap="round" stroke-linejoin="round" fill="none"/>
  
  <!-- Center slash -->
  <path d="M230 100 L170 300" stroke="url(#grad3)" stroke-width="16" stroke-linecap="round" fill="none"/>
  
  <!-- Decorative circles -->
  <circle cx="100" cy="60" r="12" fill="#8B5CF6" opacity="0.6"/>
  <circle cx="300" cy="60" r="8" fill="#3B82F6" opacity="0.6"/>
  <circle cx="320" cy="340" r="10" fill="#EC4899" opacity="0.6"/>
  <circle cx="80" cy="340" r="6" fill="#10B981" opacity="0.6"/>
  
  <!-- Sparkles -->
  <path d="M50 150 L55 160 L65 165 L55 170 L50 180 L45 170 L35 165 L45 160 Z" fill="#F59E0B"/>
  <path d="M350 230 L353 237 L360 240 L353 243 L350 250 L347 243 L340 240 L347 237 Z" fill="#8B5CF6"/>
</svg>
