<svg width="300" height="200" viewBox="0 0 300 200" fill="none" xmlns="http://www.w3.org/2000/svg">
  <defs>
    <linearGradient id="boxGrad" x1="0%" y1="0%" x2="100%" y2="100%">
      <stop offset="0%" style="stop-color:#3B82F6;stop-opacity:1" />
      <stop offset="100%" style="stop-color:#8B5CF6;stop-opacity:1" />
    </linearGradient>
    <linearGradient id="boxGrad2" x1="0%" y1="0%" x2="100%" y2="100%">
      <stop offset="0%" style="stop-color:#8B5CF6;stop-opacity:1" />
      <stop offset="100%" style="stop-color:#EC4899;stop-opacity:1" />
    </linearGradient>
  </defs>
  
  <!-- Main box -->
  <rect x="50" y="50" width="100" height="100" rx="12" fill="url(#boxGrad)" transform="rotate(-5 100 100)"/>
  <rect x="80" y="40" width="100" height="100" rx="12" fill="url(#boxGrad2)" transform="rotate(5 130 90)" opacity="0.8"/>
  
  <!-- Floating elements -->
  <circle cx="220" cy="60" r="25" fill="#10B981" opacity="0.8"/>
  <rect x="200" y="120" width="40" height="40" rx="8" fill="#F59E0B" opacity="0.8" transform="rotate(15 220 140)"/>
  
  <!-- Stars -->
  <path d="M260 30 L263 40 L273 43 L263 46 L260 56 L257 46 L247 43 L257 40 Z" fill="#F59E0B"/>
  <path d="M40 150 L42 156 L48 158 L42 160 L40 166 L38 160 L32 158 L38 156 Z" fill="#EC4899"/>
</svg>
