<svg width="60" height="60" viewBox="0 0 60 60" fill="none" xmlns="http://www.w3.org/2000/svg">
  <defs>
    <linearGradient id="twGrad" x1="0%" y1="0%" x2="100%" y2="100%">
      <stop offset="0%" style="stop-color:#38BDF8;stop-opacity:1" />
      <stop offset="100%" style="stop-color:#0EA5E9;stop-opacity:1" />
    </linearGradient>
  </defs>
  <rect width="60" height="60" rx="8" fill="url(#twGrad)"/>
  <path d="M30 18c-6.6 0-10.7 3.3-12.3 9.9 2.5-3.3 5.4-4.5 8.7-3.7 1.9.5 3.2 1.8 4.7 3.4 2.4 2.5 5.2 5.4 11.2 5.4 6.6 0 10.7-3.3 12.3-9.9-2.5 3.3-5.4 4.5-8.7 3.7-1.9-.5-3.2-1.8-4.7-3.4C38.8 20.9 36 18 30 18zM17.7 33c-6.6 0-10.7 3.3-12.3 9.9 2.5-3.3 5.4-4.5 8.7-3.7 1.9.5 3.2 1.8 4.7 3.4 2.4 2.5 5.2 5.4 11.2 5.4 6.6 0 10.7-3.3 12.3-9.9-2.5 3.3-5.4 4.5-8.7 3.7-1.9-.5-3.2-1.8-4.7-3.4-2.4-2.5-5.2-5.4-11.2-5.4z" fill="white" transform="scale(0.5) translate(30, 30)"/>
</svg>
